<?xml version="1.0" encoding="utf-8"?>
<!-- Generator: Adobe Illustrator 19.0.0, SVG Export Plug-In . SVG Version: 6.00 Build 0)  -->
<svg version="1.1" id="Layer_1" xmlns="http://www.w3.org/2000/svg" xmlns:xlink="http://www.w3.org/1999/xlink" x="0px" y="0px"
	 viewBox="0 0 786 327" style="enable-background:new 0 0 786 327;" xml:space="preserve">
<style type="text/css">
	.st0{fill:#F2F2F2;}
	.st1{display:none;fill:#E2E0E3;}
	.st2{fill:#2CA6DF;}
	.st3{display:none;fill:#137597;}
	.st4{fill:#E8E3DD;}
	.st5{display:none;}
	.st6{display:inline;fill:#E8E3DD;}
	.st7{display:none;fill:#3E3B42;}
	.st8{display:none;fill:#18181B;}
	.st9{fill:#E2E0E3;}
	.st10{fill:#171717;}
</style>
<g id="XMLID_48_">
	<g id="XMLID_5_">
		<g id="COIN_1_">
			<path id="XMLID_47_" class="st0" d="M530.7,161.3c0-0.4,0-0.7-0.1-1.1c0-0.2,0-0.4,0-0.6c-0.1-1.4-0.2-2.8-0.3-4.2
				c-0.1-1.6-0.3-3.2-0.5-4.8c-0.1-0.6-0.1-1.1-0.2-1.7c-0.1-0.6-0.2-1.1-0.2-1.7c-0.2-1.2-0.4-2.4-0.6-3.6c-0.1-0.5-0.2-1-0.3-1.5
				c-0.1-0.6-0.2-1.1-0.3-1.7c-0.1-0.6-0.2-1.1-0.3-1.7c-0.2-1-0.4-2.1-0.7-3.1c-0.1-0.6-0.3-1.2-0.4-1.8c-1-4-2.1-7.9-3.5-11.7
				c-0.2-0.5-0.4-1.1-0.6-1.6c-0.6-1.6-1.1-3.1-1.8-4.6c-0.2-0.5-0.4-1.1-0.6-1.6c-0.2-0.5-0.4-0.9-0.6-1.4c-0.2-0.5-0.4-1-0.7-1.5
				c-0.2-0.4-0.4-0.9-0.6-1.3c-0.2-0.4-0.3-0.7-0.5-1.1c-0.1-0.1-0.1-0.3-0.2-0.4c-0.2-0.4-0.4-0.8-0.5-1.1
				c-0.4-0.9-0.8-1.7-1.3-2.6c-0.2-0.5-0.5-1-0.8-1.5c-0.6-1.1-1.2-2.3-1.8-3.4c-0.2-0.3-0.3-0.6-0.5-0.9c-0.1-0.2-0.3-0.5-0.4-0.7
				h0c-0.2-0.3-0.4-0.7-0.6-1c-0.3-0.5-0.6-1-0.9-1.5c-1.1-1.8-2.2-3.5-3.3-5.2c-0.6-0.9-1.2-1.8-1.8-2.6c-0.4-0.6-0.8-1.2-1.2-1.7
				c-0.3-0.5-0.7-1-1-1.4c-0.1-0.2-0.3-0.4-0.5-0.6c-0.6-0.8-1.1-1.5-1.7-2.3c-0.7-0.9-1.4-1.8-2.2-2.7c-0.2-0.2-0.4-0.5-0.6-0.7
				c-1.7-2.1-3.5-4.1-5.3-6c-0.3-0.3-0.5-0.6-0.8-0.8l0,0c-0.4-0.4-0.7-0.8-1.1-1.2c-0.6-0.6-1.2-1.2-1.8-1.8
				c-0.4-0.4-0.9-0.9-1.3-1.3c-0.3-0.3-0.5-0.5-0.8-0.8c-0.4-0.4-0.8-0.8-1.2-1.1c-0.5-0.5-1-0.9-1.5-1.3c-0.5-0.5-1.1-1-1.6-1.5
				c-0.6-0.5-1.2-1-1.8-1.5c-0.4-0.3-0.8-0.7-1.2-1c-0.5-0.4-0.9-0.8-1.4-1.1c-0.5-0.4-0.9-0.8-1.4-1.1c-0.4-0.3-0.8-0.6-1.1-0.9
				c-0.4-0.3-0.8-0.6-1.2-0.9c-0.3-0.2-0.5-0.4-0.8-0.6c-0.3-0.2-0.6-0.5-1-0.7c-0.2-0.1-0.3-0.2-0.5-0.4c-0.3-0.2-0.6-0.5-1-0.7
				c-0.5-0.4-1-0.7-1.6-1.1c-1-0.7-1.9-1.3-2.9-2c-0.6-0.4-1.1-0.7-1.7-1.1c-0.5-0.3-1-0.7-1.5-1c-0.1-0.1-0.3-0.2-0.4-0.3
				c-0.4-0.3-0.8-0.5-1.3-0.8c-0.2-0.1-0.3-0.2-0.5-0.3c-0.5-0.3-1-0.6-1.6-0.9c-0.6-0.3-1.2-0.7-1.8-1c-0.3-0.2-0.5-0.3-0.8-0.4
				c-1.5-0.8-3.1-1.7-4.7-2.4c-0.4-0.2-0.7-0.4-1.1-0.6c-0.4-0.2-0.7-0.4-1.1-0.5c-0.4-0.2-0.8-0.4-1.1-0.5
				c-0.4-0.2-0.8-0.4-1.1-0.5c-2.1-0.9-4.1-1.8-6.2-2.7c-0.5-0.2-1.1-0.4-1.6-0.6c-0.5-0.2-1.1-0.4-1.6-0.6
				c-0.4-0.2-0.8-0.3-1.2-0.4c-0.7-0.3-1.4-0.5-2.2-0.8c-0.5-0.2-1-0.3-1.4-0.5c-3.1-1-6.2-1.9-9.3-2.7c-0.4-0.1-0.8-0.2-1.3-0.3
				c-0.5-0.1-0.9-0.2-1.4-0.3c-0.4-0.1-0.8-0.2-1.2-0.3c-0.5-0.1-1.1-0.2-1.6-0.4c-0.4-0.1-0.8-0.2-1.1-0.2
				c-0.3-0.1-0.6-0.1-0.9-0.2c-3-0.6-5.9-1.1-8.9-1.5c-0.4-0.1-0.8-0.1-1.2-0.2c-1.3-0.2-2.6-0.3-3.9-0.4c0,0,0,0,0,0
				c-0.5,0-0.9-0.1-1.4-0.1c-1.2-0.1-2.4-0.2-3.5-0.2c-0.3,0-0.6,0-0.8,0c-0.3,0-0.6,0-0.8,0c-0.1,0-0.2,0-0.3,0
				c-0.6,0-1.3-0.1-1.9-0.1c-0.1,0-0.2,0-0.3,0c-0.7,0-1.3,0-2,0c-0.7,0-1.4,0-2,0c-2.7,0-5.5,0.1-8.2,0.2
				c-19.5,1.1-38.2,6.2-55.3,14.9c-0.5,0.2-1,0.5-1.4,0.7c-1.4,0.7-2.9,1.5-4.3,2.3c-2.9,1.6-5.7,3.4-8.5,5.2
				c-1.3,0.9-2.7,1.8-4,2.8c-6.2,4.4-12,9.4-17.5,14.9c-5.7,5.7-10.8,11.8-15.4,18.2c-1,1.4-2,2.8-2.9,4.3c-3,4.6-5.7,9.4-8.2,14.3
				c-8.4,16.9-13.3,35.4-14.4,54.7c-0.1,2.6-0.2,5.1-0.2,7.7c0,2.9,0.1,5.8,0.3,8.7c0.1,1.5,0.2,3,0.3,4.5
				c1.5,15.8,5.6,31.1,12.1,45.2c0.8,1.6,1.5,3.3,2.4,4.9c2.5,4.9,5.2,9.6,8.3,14.2c5.1,7.7,11.1,14.9,17.7,21.6
				c6.9,6.9,14.4,13,22.4,18.2c4.6,3,9.3,5.8,14.2,8.2c1.4,0.7,2.8,1.4,4.2,2c14.3,6.5,29.6,10.6,45.5,12.1c1.7,0.2,3.3,0.3,5,0.4
				c2.6,0.1,5.2,0.2,7.9,0.2c0.9,0,1.7,0,2.6,0c0.5,0,0.9,0,1.4,0c0,0,0.1,0,0.1,0c0.2,0,0.3,0,0.5,0c0,0,0.1,0,0.1,0
				c0.6,0,1.2,0,1.7-0.1c0.6,0,1.3-0.1,1.9-0.1c0.1,0,0.2,0,0.3,0c0.6,0,1.3-0.1,1.9-0.1c1.2-0.1,2.3-0.2,3.5-0.3
				c0.6-0.1,1.2-0.1,1.8-0.2c0.6-0.1,1.2-0.1,1.8-0.2c0.5-0.1,1-0.1,1.6-0.2c0.4,0,0.7-0.1,1.1-0.1c0.2,0,0.5-0.1,0.7-0.1
				c0.5-0.1,1.1-0.2,1.6-0.2c0.4-0.1,0.8-0.1,1.2-0.2c0.3,0,0.6-0.1,0.9-0.2c0.1,0,0.1,0,0.2,0c0.3-0.1,0.6-0.1,0.9-0.2
				c0.1,0,0.2,0,0.3-0.1c0.3-0.1,0.6-0.1,0.9-0.2c0.1,0,0.1,0,0.2,0c0.2,0,0.5-0.1,0.7-0.1c0.5-0.1,0.9-0.2,1.4-0.3
				c1.5-0.3,2.9-0.6,4.3-1c0.5-0.1,1-0.2,1.5-0.4c0.3-0.1,0.6-0.1,0.9-0.2c0.4-0.1,0.8-0.2,1.1-0.3c0,0,0,0,0,0
				c0.5-0.1,0.9-0.3,1.4-0.4c0.4-0.1,0.8-0.2,1.2-0.4c0.8-0.2,1.6-0.5,2.3-0.7c0.5-0.2,1-0.3,1.5-0.5c0.6-0.2,1.1-0.4,1.7-0.6
				c0.3-0.1,0.6-0.2,0.8-0.3c0.3-0.1,0.6-0.2,0.8-0.3c0.6-0.2,1.1-0.4,1.7-0.6c0.6-0.2,1.1-0.4,1.7-0.6c0.5-0.2,1.1-0.4,1.6-0.6
				c0.5-0.2,1.1-0.4,1.6-0.7c0.5-0.2,1.1-0.5,1.6-0.7c0,0,0.1,0,0.1,0c0.7-0.3,1.3-0.6,2-0.9c0,0,0,0,0.1,0c0.7-0.3,1.3-0.6,1.9-0.9
				c1.3-0.6,2.6-1.3,3.9-1.9c0.6-0.3,1.2-0.6,1.8-0.9c0.5-0.2,0.9-0.5,1.4-0.8c1.4-0.7,2.7-1.5,4.1-2.3c0.6-0.3,1.1-0.7,1.7-1
				c1.3-0.8,2.5-1.5,3.8-2.3c0.5-0.3,1-0.6,1.5-1c1.3-0.9,2.6-1.7,3.8-2.6c0.8-0.6,1.6-1.1,2.4-1.7c0.8-0.6,1.6-1.2,2.3-1.8l0.9-0.7
				c0.5-0.4,0.9-0.7,1.4-1.1c0.4-0.3,0.8-0.6,1.1-0.9c0.4-0.4,0.9-0.7,1.3-1.1c2.9-2.5,5.8-5.1,8.5-7.8c0.6-0.6,1.3-1.3,1.9-1.9
				c0.4-0.4,0.8-0.8,1.1-1.2c0.7-0.8,1.4-1.5,2.1-2.3c0.7-0.7,1.3-1.5,2-2.2c0.1-0.1,0.1-0.2,0.2-0.2c0.4-0.4,0.8-0.9,1.2-1.4
				c0.6-0.7,1.2-1.4,1.7-2.1c0.2-0.3,0.5-0.6,0.7-0.9c0.3-0.4,0.7-0.8,1-1.3c0.3-0.4,0.7-0.8,1-1.3c0.5-0.7,1.1-1.4,1.6-2.1
				c0.3-0.4,0.5-0.7,0.8-1.1c0,0,0,0,0.1-0.1c0.6-0.8,1.1-1.6,1.7-2.4c0.4-0.5,0.7-1.1,1.1-1.6c0,0,0,0,0-0.1c0,0,0-0.1,0-0.1
				c0.2-0.3,0.4-0.7,0.7-1c0.1-0.1,0.2-0.2,0.2-0.4c0.4-0.7,0.9-1.4,1.3-2.1c0.4-0.6,0.7-1.2,1.1-1.7c0.1-0.2,0.3-0.5,0.4-0.7
				c0.2-0.4,0.4-0.7,0.6-1.1c1-1.8,2-3.6,3-5.4c0.3-0.6,0.6-1.2,0.9-1.8c0.5-0.9,0.9-1.9,1.4-2.8c0.4-0.8,0.7-1.5,1.1-2.3
				c0.2-0.4,0.4-0.8,0.6-1.3c0.2-0.5,0.4-1,0.7-1.5c1-2.3,1.9-4.5,2.7-6.8c0.1-0.4,0.3-0.8,0.4-1.2c0.5-1.5,1-3,1.5-4.6
				c0.2-0.5,0.3-1,0.5-1.5c0.1-0.5,0.3-1,0.4-1.4c0.2-0.7,0.4-1.3,0.6-2c0-0.1,0.1-0.2,0.1-0.3c0.1-0.5,0.3-1.1,0.4-1.6
				c0-0.1,0.1-0.3,0.1-0.4c0.1-0.4,0.2-0.9,0.3-1.3c0.1-0.3,0.1-0.6,0.2-0.9c0.6-2.6,1.2-5.3,1.6-8c0.1-0.4,0.1-0.8,0.2-1.2
				c0.1-0.3,0.1-0.7,0.2-1c0.1-0.6,0.2-1.1,0.3-1.7c0.1-0.6,0.2-1.1,0.2-1.7c0.1-0.8,0.2-1.7,0.3-2.5c0.1-0.5,0.1-0.9,0.2-1.4
				c0.1-0.6,0.1-1.2,0.2-1.8c0-0.3,0.1-0.6,0.1-0.9c0-0.3,0-0.6,0.1-0.9c0-0.5,0.1-1.1,0.1-1.6c0-0.2,0-0.5,0-0.7
				c0-0.4,0.1-0.9,0.1-1.3c0-0.7,0.1-1.3,0.1-2c0.1-1.3,0.1-2.7,0.1-4c0-0.7,0-1.3,0-2v-0.1C530.9,165.7,530.8,163.5,530.7,161.3z"
				/>
			<path id="XMLID_46_" class="st1" d="M530.9,168c0,0.7,0,1.3,0,2c0,1.3-0.1,2.7-0.1,4c0,0.7-0.1,1.3-0.1,2c0,0.4,0,0.9-0.1,1.3
				c0,0.2,0,0.5,0,0.7c0,0.5-0.1,1.1-0.1,1.6c0,0.3,0,0.6-0.1,0.9c0,0.3,0,0.6-0.1,0.9c-0.1,0.6-0.1,1.2-0.2,1.8
				c0,0.5-0.1,0.9-0.2,1.4c-0.1,0.8-0.2,1.7-0.3,2.5c-0.1,0.6-0.2,1.1-0.2,1.7c-0.1,0.6-0.2,1.1-0.3,1.7c-0.1,0.3-0.1,0.7-0.2,1
				c-0.1,0.4-0.1,0.8-0.2,1.2c-0.5,2.7-1,5.3-1.6,8c-0.1,0.3-0.1,0.6-0.2,0.9c-0.1,0.4-0.2,0.9-0.3,1.3c0,0.1-0.1,0.3-0.1,0.4
				c-0.1,0.5-0.3,1.1-0.4,1.6c0,0.1,0,0.2-0.1,0.3c-0.2,0.7-0.4,1.3-0.6,2c-0.1,0.5-0.3,1-0.4,1.4c-0.2,0.5-0.3,1-0.5,1.5
				c-0.5,1.5-1,3.1-1.5,4.6c-0.1,0.4-0.3,0.8-0.4,1.2c-0.8,2.3-1.7,4.6-2.7,6.8c-0.2,0.5-0.4,1-0.7,1.5c-0.2,0.4-0.4,0.8-0.6,1.3
				c-0.4,0.8-0.7,1.6-1.1,2.3c-0.4,0.9-0.9,1.9-1.4,2.8c-0.3,0.6-0.6,1.2-0.9,1.8c-0.9,1.8-1.9,3.6-3,5.4c-0.3,0.6-0.7,1.2-1,1.8
				c-0.4,0.6-0.7,1.2-1.1,1.7c-0.4,0.7-0.9,1.4-1.3,2.1c-0.1,0.1-0.2,0.2-0.2,0.4c-0.2,0.3-0.4,0.7-0.7,1c0,0,0,0.1,0,0.1
				c0,0,0,0,0,0.1c-0.4,0.5-0.7,1.1-1.1,1.6c-0.6,0.8-1.1,1.6-1.7,2.4c0,0,0,0.1-0.1,0.1c-0.3,0.4-0.5,0.7-0.8,1.1
				c-0.5,0.7-1.1,1.4-1.6,2.1c-0.3,0.4-0.7,0.9-1,1.3c-0.3,0.4-0.7,0.8-1,1.3c-0.2,0.3-0.5,0.6-0.7,0.9c-0.6,0.7-1.1,1.4-1.7,2.1
				c-0.4,0.5-0.8,0.9-1.2,1.4c-0.1,0.1-0.1,0.2-0.2,0.2c-0.6,0.8-1.3,1.5-2,2.2c-0.7,0.8-1.4,1.5-2.1,2.3c-0.4,0.4-0.7,0.8-1.1,1.2
				c-0.6,0.7-1.3,1.3-1.9,1.9c-2.7,2.7-5.6,5.4-8.5,7.8c-0.4,0.4-0.9,0.7-1.3,1.1c-0.4,0.3-0.8,0.6-1.1,0.9
				c-0.5,0.4-0.9,0.7-1.4,1.1l-0.9,0.7c-0.8,0.6-1.5,1.2-2.3,1.8s-1.6,1.2-2.4,1.7c-1.3,0.9-2.5,1.8-3.8,2.6c-0.5,0.3-1,0.6-1.5,1
				c-1.2,0.8-2.5,1.6-3.8,2.3c-0.6,0.3-1.1,0.7-1.7,1c-1.3,0.8-2.7,1.6-4.1,2.3c-0.5,0.3-0.9,0.5-1.4,0.8c-0.6,0.3-1.2,0.6-1.8,0.9
				c-1.3,0.7-2.6,1.3-3.9,1.9c-0.6,0.3-1.3,0.6-1.9,0.9c0,0,0,0-0.1,0c-0.7,0.3-1.3,0.6-2,0.9c0,0-0.1,0-0.1,0
				c-0.5,0.2-1.1,0.5-1.6,0.7c-0.5,0.2-1.1,0.4-1.6,0.7c-0.5,0.2-1.1,0.4-1.6,0.6c-0.6,0.2-1.1,0.4-1.7,0.6
				c-0.6,0.2-1.1,0.4-1.7,0.6c-0.3,0.1-0.6,0.2-0.8,0.3c-0.3,0.1-0.6,0.2-0.8,0.3c-0.6,0.2-1.1,0.4-1.7,0.6c-0.5,0.2-1,0.3-1.5,0.5
				c-0.8,0.2-1.6,0.5-2.3,0.7c-0.4,0.1-0.8,0.2-1.2,0.4c-0.5,0.1-0.9,0.3-1.4,0.4c0,0,0,0,0,0c-0.4,0.1-0.8,0.2-1.1,0.3
				c-0.3,0.1-0.6,0.2-0.9,0.2c-0.5,0.1-1,0.3-1.5,0.4c-1.4,0.4-2.9,0.7-4.3,1c-0.5,0.1-0.9,0.2-1.4,0.3c-0.2,0-0.5,0.1-0.7,0.1
				c-0.1,0-0.1,0-0.2,0c-0.3,0.1-0.6,0.1-0.9,0.2c-0.1,0-0.2,0-0.3,0.1c-0.3,0.1-0.6,0.1-0.9,0.2c-0.1,0-0.1,0-0.2,0
				c-0.3,0.1-0.6,0.1-0.9,0.2c-0.4,0.1-0.8,0.1-1.2,0.2c-0.5,0.1-1.1,0.2-1.6,0.2c-0.2,0-0.5,0.1-0.7,0.1c-0.4,0.1-0.7,0.1-1.1,0.1
				c-0.5,0.1-1,0.1-1.6,0.2c-0.6,0.1-1.2,0.1-1.8,0.2c-0.6,0.1-1.2,0.1-1.8,0.2c-1.2,0.1-2.3,0.2-3.5,0.3c-0.6,0-1.3,0.1-1.9,0.1
				c-0.1,0-0.2,0-0.3,0c-0.6,0-1.3,0.1-1.9,0.1c-0.6,0-1.2,0-1.7,0.1c0,0-0.1,0-0.1,0c-0.2,0-0.3,0-0.5,0c0,0-0.1,0-0.1,0
				c-0.4,0-0.9,0-1.4,0c-0.9,0-1.7,0-2.6,0V27.8c0.7,0,1.4,0,2,0c1.5,0,3,0.1,4.5,0.1c0.3,0,0.6,0,0.8,0c0.3,0,0.6,0,0.8,0
				c1.2,0.1,2.4,0.1,3.5,0.2c0.5,0,0.9,0.1,1.4,0.1c0,0,0,0,0,0c1.3,0.1,2.6,0.3,3.9,0.4c0.4,0,0.8,0.1,1.2,0.2c3,0.4,6,0.9,8.9,1.5
				c0.3,0.1,0.6,0.1,0.9,0.2c0.4,0.1,0.8,0.2,1.1,0.2c0.5,0.1,1.1,0.2,1.6,0.4c0.4,0.1,0.8,0.2,1.2,0.3c0.5,0.1,1,0.2,1.4,0.3
				c0.4,0.1,0.8,0.2,1.3,0.3c3.1,0.8,6.3,1.7,9.3,2.7c0.5,0.2,1,0.3,1.4,0.5c0.7,0.2,1.5,0.5,2.2,0.8c0.4,0.1,0.8,0.3,1.2,0.4
				c0.5,0.2,1.1,0.4,1.6,0.6s1.1,0.4,1.6,0.6c2.1,0.8,4.2,1.7,6.2,2.7c0.4,0.2,0.8,0.3,1.1,0.5c0.4,0.2,0.8,0.4,1.1,0.5
				c0.4,0.2,0.8,0.4,1.1,0.5c0.4,0.2,0.8,0.4,1.1,0.6c1.6,0.8,3.1,1.6,4.7,2.4c0.3,0.1,0.5,0.3,0.8,0.4c0.6,0.3,1.2,0.7,1.8,1
				c0.5,0.3,1,0.6,1.6,0.9c0.6,0.4,1.2,0.7,1.8,1.1c0.1,0.1,0.3,0.2,0.4,0.3c0.5,0.3,1,0.6,1.5,1c0.6,0.4,1.1,0.7,1.7,1.1
				c1,0.7,2,1.3,2.9,2c0.5,0.4,1.1,0.7,1.6,1.1c0.3,0.2,0.6,0.5,1,0.7c0.2,0.1,0.3,0.2,0.5,0.4c0.3,0.2,0.6,0.5,1,0.7
				c0.3,0.2,0.5,0.4,0.8,0.6c0.4,0.3,0.8,0.6,1.2,0.9c0.4,0.3,0.8,0.6,1.1,0.9c0.5,0.4,0.9,0.7,1.4,1.1c0.5,0.4,0.9,0.8,1.4,1.1
				c0.4,0.3,0.8,0.6,1.2,1c0.6,0.5,1.2,1,1.8,1.5c0.5,0.5,1.1,1,1.6,1.5c0.5,0.4,1,0.9,1.5,1.3c0.4,0.4,0.8,0.8,1.2,1.1
				c0.3,0.3,0.5,0.5,0.8,0.8c0.4,0.4,0.9,0.8,1.3,1.3c0.6,0.6,1.2,1.2,1.8,1.8c0.4,0.4,0.7,0.8,1.1,1.2l0,0c0.3,0.3,0.5,0.6,0.8,0.8
				c1.8,2,3.6,4,5.3,6c0.2,0.2,0.4,0.5,0.6,0.7c0.7,0.9,1.5,1.8,2.2,2.7c0.6,0.7,1.2,1.5,1.7,2.3c0.2,0.2,0.3,0.4,0.5,0.6
				c0.4,0.5,0.7,0.9,1,1.4c0.4,0.6,0.8,1.1,1.2,1.7c0.6,0.9,1.2,1.7,1.8,2.6c1.1,1.7,2.2,3.5,3.3,5.2c0.3,0.5,0.6,1,0.9,1.5
				c0.3,0.6,0.7,1.1,1,1.7c0.2,0.3,0.3,0.6,0.5,0.9c0.6,1.1,1.2,2.2,1.8,3.4c0.3,0.5,0.5,1,0.8,1.5c0.4,0.8,0.8,1.7,1.3,2.6
				c0.2,0.4,0.4,0.8,0.5,1.1c0.1,0.1,0.1,0.3,0.2,0.4c0.2,0.4,0.3,0.7,0.5,1.1c0.2,0.4,0.4,0.9,0.6,1.3c0.2,0.5,0.4,1,0.7,1.5
				c0.2,0.5,0.4,0.9,0.6,1.4c0.2,0.5,0.4,1.1,0.6,1.6c0.6,1.5,1.2,3.1,1.8,4.6c0.2,0.5,0.4,1.1,0.6,1.6c1.3,3.8,2.5,7.7,3.5,11.7
				c0.1,0.6,0.3,1.2,0.4,1.8c0.2,1,0.5,2.1,0.7,3.1c0.1,0.6,0.2,1.1,0.3,1.7c0.1,0.6,0.2,1.1,0.3,1.7c0.1,0.5,0.2,1,0.3,1.5
				c0.2,1.2,0.4,2.4,0.6,3.6c0.1,0.6,0.2,1.1,0.2,1.7c0.1,0.6,0.2,1.1,0.2,1.7c0.2,1.6,0.4,3.2,0.5,4.8c0.1,1.4,0.2,2.8,0.3,4.2
				c0,0.2,0,0.4,0,0.6c0,0.4,0,0.7,0.1,1.1C530.8,163.5,530.9,165.8,530.9,168z"/>
			<path id="XMLID_43_" class="st2" d="M528.5,142.4c-0.1-0.3-0.1-0.7-0.2-1c0-0.2-0.1-0.4-0.1-0.6c-0.3-1.4-0.6-2.7-0.9-4.1
				c-0.4-1.6-0.7-3.1-1.1-4.7c-0.1-0.6-0.3-1.1-0.5-1.7c-0.2-0.6-0.3-1.1-0.5-1.7c-0.3-1.2-0.7-2.3-1-3.4c-0.2-0.5-0.3-1-0.5-1.5
				c-0.2-0.5-0.4-1.1-0.5-1.6c-0.2-0.5-0.4-1.1-0.6-1.6c-0.4-1-0.7-2-1.1-3c-0.2-0.6-0.4-1.1-0.7-1.7c-1.5-3.8-3.2-7.5-5-11.1
				c-0.3-0.5-0.5-1-0.8-1.5c-0.8-1.5-1.5-2.9-2.4-4.4c-0.3-0.5-0.6-1-0.8-1.5c-0.2-0.4-0.5-0.8-0.7-1.3c-0.3-0.5-0.6-0.9-0.9-1.4
				c-0.3-0.4-0.5-0.8-0.8-1.2c-0.2-0.3-0.4-0.7-0.6-1c-0.1-0.1-0.2-0.2-0.2-0.4c-0.2-0.3-0.4-0.7-0.7-1c-0.5-0.8-1.1-1.6-1.6-2.4
				c-0.3-0.5-0.6-0.9-1-1.4c-0.7-1-1.5-2.1-2.3-3.1c-0.2-0.3-0.4-0.5-0.6-0.8c-0.4-0.5-0.8-1.1-1.2-1.6c-0.4-0.5-0.7-0.9-1.1-1.4
				c-1.3-1.6-2.6-3.2-4-4.7l-33.1,25.7c-7.9-8.6-17.4-15.8-27.8-21.1l15.8-38.8c-0.6-0.3-1.2-0.6-1.8-0.9c-0.6-0.3-1.1-0.5-1.7-0.8
				c-0.1-0.1-0.3-0.1-0.4-0.2c-0.6-0.3-1.3-0.6-1.9-0.8c-0.6-0.2-1.1-0.5-1.7-0.7c-0.6-0.3-1.2-0.5-1.9-0.8
				c-0.3-0.1-0.6-0.2-0.9-0.3c-1.6-0.6-3.3-1.2-4.9-1.8c-0.4-0.1-0.8-0.3-1.2-0.4c-0.4-0.1-0.8-0.3-1.2-0.4
				c-0.4-0.1-0.8-0.3-1.2-0.4c-0.4-0.1-0.8-0.3-1.2-0.4c-2.2-0.7-4.4-1.3-6.5-1.8c-0.5-0.1-1.1-0.3-1.7-0.4
				c-0.6-0.1-1.1-0.3-1.7-0.4c-0.4-0.1-0.8-0.2-1.3-0.3c-0.8-0.2-1.5-0.3-2.3-0.5c-0.5-0.1-1-0.2-1.5-0.3c-3.2-0.6-6.4-1.1-9.6-1.4
				c-0.4,0-0.9-0.1-1.3-0.1c-0.5,0-1-0.1-1.5-0.1c-0.4,0-0.8-0.1-1.2-0.1c-0.6,0-1.1-0.1-1.7-0.1c-0.4,0-0.8-0.1-1.2-0.1
				c-0.3,0-0.6,0-0.9-0.1c-3-0.2-6-0.3-9.1-0.2c-0.4,0-0.8,0-1.2,0c-1.3,0-2.6,0.1-3.9,0.1c0,0,0,0,0,0c-0.5,0-0.9,0-1.4,0.1
				c-1.2,0.1-2.4,0.1-3.5,0.2c-0.3,0-0.6,0-0.8,0.1c-0.3,0-0.6,0-0.8,0.1c-0.8,0.1-1.7,0.2-2.5,0.2c-0.3,0-0.7,0.1-1,0.1
				c-0.3,0-0.7,0.1-1,0.1c-0.7,0.1-1.3,0.2-2,0.3c-2.7,0.4-5.4,0.8-8.1,1.4l5.7,41.4c-11.9,2.6-22.9,7.4-32.6,13.8l-25.8-33
				c-0.4,0.3-0.9,0.6-1.3,0.9c-1.3,0.9-2.6,1.9-3.9,2.9l0,0c-2.6,2-5.2,4.1-7.7,6.3c-1.2,1.1-2.4,2.2-3.6,3.3
				c-5.5,5.2-10.6,10.9-15.3,17.1c-4.9,6.4-9.1,13.2-12.8,20.2c-0.8,1.5-1.6,3.1-2.3,4.6c-2.4,5-4.4,10-6.2,15.2l38.8,15.7
				c-3.4,11-4.9,22.6-4.3,34.6l-41.4,5.8c0.2,2.5,0.5,5.1,0.8,7.6c0.4,2.9,0.9,5.8,1.4,8.6c0.3,1.5,0.6,2.9,0.9,4.4
				c3.6,15.5,9.7,30,18.1,43.2c1,1.5,2,3,3,4.5c3.1,4.5,6.5,8.8,10.1,12.9l33-25.8c8,8.6,17.4,15.7,27.8,21l-15.7,38.8
				c5,2.4,10,4.4,15.2,6.2c1.5,0.5,2.9,1,4.4,1.4c15,4.5,30.7,6.5,46.7,5.8c1.7-0.1,3.4-0.2,5-0.3c2.6-0.2,5.2-0.5,7.8-0.8
				c0.9-0.1,1.7-0.2,2.6-0.4c0.4-0.1,0.9-0.1,1.3-0.2c0,0,0.1,0,0.1,0c0.2,0,0.3-0.1,0.5-0.1c0,0,0.1,0,0.1,0
				c0.6-0.1,1.1-0.2,1.7-0.3c0.6-0.1,1.2-0.2,1.9-0.4c0.1,0,0.2,0,0.2,0l-5.8-41.4c11.7-2.6,22.5-7.3,32.1-13.6l25.7,33.1
				c0.6-0.4,1.1-0.8,1.7-1.2c0.4-0.3,0.9-0.6,1.3-0.9c1.3-0.9,2.5-1.9,3.7-2.8c0.5-0.4,1-0.8,1.5-1.2c1.2-0.9,2.3-1.9,3.4-2.8
				c0.4-0.4,0.9-0.8,1.3-1.2c1.2-1,2.3-2.1,3.4-3.1c0.7-0.7,1.4-1.3,2.1-2s1.4-1.4,2.1-2.1l0.8-0.8c0.4-0.4,0.8-0.8,1.2-1.3
				c0.3-0.4,0.7-0.7,1-1.1c0.4-0.4,0.8-0.8,1.2-1.3c2.6-2.9,5-5.8,7.4-8.9c0.5-0.7,1.1-1.4,1.6-2.2c0.3-0.4,0.6-0.9,0.9-1.3
				c0.6-0.9,1.2-1.7,1.8-2.6c0.6-0.8,1.1-1.6,1.6-2.5c0.1-0.1,0.1-0.2,0.2-0.3c0.3-0.5,0.6-1,1-1.5c0.5-0.8,1-1.5,1.4-2.3
				c0.2-0.3,0.4-0.6,0.6-1c0.3-0.5,0.5-0.9,0.8-1.4c0.3-0.5,0.5-0.9,0.8-1.4c0.4-0.8,0.9-1.6,1.3-2.3c0.2-0.4,0.4-0.8,0.6-1.2
				c0,0,0-0.1,0-0.1c0.5-0.9,0.9-1.8,1.4-2.7c0.3-0.6,0.6-1.2,0.8-1.7c0,0,0,0,0-0.1c0,0,0-0.1,0-0.1c0.2-0.4,0.3-0.7,0.5-1.1
				c0.1-0.1,0.1-0.3,0.2-0.4c0.3-0.7,0.7-1.5,1-2.2c0.3-0.6,0.5-1.2,0.8-1.9c0.3-0.6,0.5-1.2,0.8-1.9c0.8-1.9,1.5-3.8,2.2-5.8
				c0.2-0.6,0.5-1.3,0.7-1.9l-38.8-15.8c3.4-10.9,5-22.6,4.3-34.6l41.4-5.7c-0.1-0.7-0.1-1.3-0.2-2c-0.1-1.3-0.3-2.7-0.4-4
				c-0.1-0.7-0.2-1.3-0.3-2C529.3,146.8,528.9,144.6,528.5,142.4z M401.8,249.3c-44.8,6.1-86.3-25.4-92.4-70.2s25.4-86.3,70.2-92.4
				c44.8-6.1,86.3,25.4,92.4,70.2S446.6,243.2,401.8,249.3z"/>
			<path id="XMLID_42_" class="st3" d="M530.3,155c-0.1-1.3-0.3-2.7-0.4-4c-0.1-0.7-0.2-1.3-0.3-2c-0.3-2.2-0.7-4.4-1.1-6.6
				c-0.1-0.3-0.1-0.7-0.2-1c0-0.2-0.1-0.4-0.1-0.6c-0.3-1.4-0.6-2.7-0.9-4.1c-0.4-1.6-0.7-3.1-1.1-4.7c-0.1-0.6-0.3-1.1-0.5-1.7
				c-0.2-0.6-0.3-1.1-0.5-1.7c-0.3-1.2-0.7-2.3-1-3.4c-0.2-0.5-0.3-1-0.5-1.5c-0.2-0.5-0.4-1.1-0.5-1.6c-0.2-0.5-0.4-1.1-0.6-1.6
				c-0.4-1-0.7-2-1.1-3c-0.2-0.6-0.4-1.1-0.7-1.7c-1.5-3.8-3.2-7.5-5-11.1c-0.3-0.5-0.5-1-0.8-1.5c-0.8-1.5-1.5-2.9-2.4-4.4
				c-0.3-0.5-0.6-1-0.8-1.5c-0.2-0.4-0.5-0.8-0.7-1.3c-0.3-0.5-0.6-0.9-0.9-1.4c-0.3-0.4-0.5-0.8-0.8-1.2c-0.2-0.3-0.4-0.7-0.6-1
				c-0.1-0.1-0.2-0.2-0.2-0.4c-0.2-0.3-0.4-0.7-0.7-1c-0.5-0.8-1.1-1.6-1.6-2.4c-0.3-0.5-0.6-0.9-1-1.4c-0.7-1-1.5-2.1-2.3-3.1
				c-0.2-0.3-0.4-0.5-0.6-0.8c-0.4-0.5-0.8-1.1-1.2-1.6c-0.4-0.5-0.7-0.9-1.1-1.4c-1.3-1.6-2.6-3.2-4-4.7l-33.1,25.7
				c-7.9-8.6-17.4-15.8-27.8-21.1l15.8-38.8c-0.6-0.3-1.2-0.6-1.8-0.9c-0.6-0.3-1.1-0.5-1.7-0.8c-0.1-0.1-0.3-0.1-0.4-0.2
				c-0.6-0.3-1.3-0.6-1.9-0.8c-0.6-0.2-1.1-0.5-1.7-0.7c-0.6-0.3-1.2-0.5-1.9-0.8c-0.3-0.1-0.6-0.2-0.9-0.3
				c-1.6-0.6-3.3-1.2-4.9-1.8c-0.4-0.1-0.8-0.3-1.2-0.4c-0.4-0.1-0.8-0.3-1.2-0.4c-0.4-0.1-0.8-0.3-1.2-0.4
				c-0.4-0.1-0.8-0.3-1.2-0.4c-2.2-0.7-4.4-1.3-6.5-1.8c-0.5-0.1-1.1-0.3-1.7-0.4c-0.6-0.1-1.1-0.3-1.7-0.4
				c-0.4-0.1-0.8-0.2-1.3-0.3c-0.8-0.2-1.5-0.3-2.3-0.5c-0.5-0.1-1-0.2-1.5-0.3c-3.2-0.6-6.4-1.1-9.6-1.4c-0.4,0-0.9-0.1-1.3-0.1
				c-0.5,0-1-0.1-1.5-0.1c-0.4,0-0.8-0.1-1.2-0.1c-0.6,0-1.1-0.1-1.7-0.1c-0.4,0-0.8-0.1-1.2-0.1c-0.3,0-0.6,0-0.9-0.1
				c-2.8-0.2-5.6-0.2-8.4-0.2v58.2c40.4,0,75.7,29.9,81.3,71c6.1,44.8-25.4,86.3-70.2,92.4c-3.7,0.5-7.4,0.8-11.1,0.8v58.2
				c2,0,4.1-0.1,6.1-0.1c1.7-0.1,3.4-0.2,5-0.3c2.6-0.2,5.2-0.5,7.8-0.8c0.9-0.1,1.7-0.2,2.6-0.4c0.4-0.1,0.9-0.1,1.3-0.2
				c0,0,0.1,0,0.1,0c0.2,0,0.3-0.1,0.5-0.1c0,0,0.1,0,0.1,0c0.6-0.1,1.1-0.2,1.7-0.3c0.6-0.1,1.2-0.2,1.9-0.4c0.1,0,0.2,0,0.2,0
				l-5.8-41.4c11.7-2.6,22.5-7.3,32.1-13.6l25.7,33.1c0.6-0.4,1.1-0.8,1.7-1.2c0.4-0.3,0.9-0.6,1.3-0.9c1.3-0.9,2.5-1.9,3.7-2.8
				c0.5-0.4,1-0.8,1.5-1.2c1.2-0.9,2.3-1.9,3.4-2.8c0.4-0.4,0.9-0.8,1.3-1.2c1.2-1,2.3-2.1,3.4-3.1c0.7-0.7,1.4-1.3,2.1-2
				c0.7-0.7,1.4-1.4,2.1-2.1l0.8-0.8c0.4-0.4,0.8-0.8,1.2-1.3c0.3-0.4,0.7-0.7,1-1.1c0.4-0.4,0.8-0.8,1.2-1.3c2.6-2.9,5-5.8,7.4-8.9
				c0.5-0.7,1.1-1.4,1.6-2.2c0.3-0.4,0.6-0.9,0.9-1.3c0.6-0.9,1.2-1.7,1.8-2.6c0.6-0.8,1.1-1.6,1.6-2.5c0.1-0.1,0.1-0.2,0.2-0.3
				c0.3-0.5,0.6-1,1-1.5c0.5-0.8,1-1.5,1.4-2.3c0.2-0.3,0.4-0.6,0.6-1c0.3-0.5,0.5-0.9,0.8-1.4c0.3-0.5,0.5-0.9,0.8-1.4
				c0.4-0.8,0.9-1.6,1.3-2.3c0.2-0.4,0.4-0.8,0.6-1.2c0,0,0-0.1,0-0.1c0.5-0.9,0.9-1.8,1.4-2.7c0.3-0.6,0.6-1.2,0.8-1.7
				c0,0,0,0,0-0.1c0,0,0-0.1,0-0.1c0.2-0.4,0.3-0.7,0.5-1.1c0.1-0.1,0.1-0.3,0.2-0.4c0.3-0.7,0.7-1.5,1-2.2c0.3-0.6,0.5-1.2,0.8-1.9
				c0.3-0.6,0.5-1.2,0.8-1.9c0.8-1.9,1.5-3.8,2.2-5.8c0.2-0.6,0.5-1.3,0.7-1.9l-38.8-15.8c3.4-10.9,5-22.6,4.3-34.6l41.4-5.7
				C530.4,156.4,530.3,155.7,530.3,155z"/>
			<path id="XMLID_41_" class="st1" d="M448.7,226.1c-15.5,15.5-36.1,24-58,24V85.9c21.9,0,42.5,8.5,58,24c15.5,15.5,24,36.1,24,58
				S464.2,210.6,448.7,226.1z"/>
			<path id="XMLID_40_" class="st3" d="M530.9,168c0,0.7,0,1.3,0,2c0,1.3-0.1,2.7-0.1,4c0,0.7-0.1,1.3-0.1,2l-41.8,0.1
				c-1,12-4.1,23.3-9,33.7l36.3,20.9c-0.3,0.6-0.6,1.2-0.9,1.8c-0.9,1.8-1.9,3.6-3,5.4c-0.3,0.6-0.7,1.2-1,1.8
				c-0.4,0.6-0.7,1.2-1.1,1.7c-0.4,0.7-0.9,1.4-1.3,2.1c-0.1,0.1-0.2,0.2-0.2,0.4c-0.2,0.3-0.4,0.7-0.7,1c0,0,0,0.1,0,0.1
				c0,0,0,0,0,0.1c-0.4,0.5-0.7,1.1-1.1,1.6c-0.6,0.8-1.1,1.6-1.7,2.4c0,0,0,0.1-0.1,0.1c-0.3,0.4-0.5,0.7-0.8,1.1
				c-0.5,0.7-1.1,1.4-1.6,2.1c-0.3,0.4-0.7,0.9-1,1.3c-0.3,0.4-0.7,0.8-1,1.3c-0.2,0.3-0.5,0.6-0.7,0.9c-0.6,0.7-1.1,1.4-1.7,2.1
				c-0.4,0.5-0.8,0.9-1.2,1.4c-0.1,0.1-0.1,0.2-0.2,0.2c-0.6,0.8-1.3,1.5-2,2.2c-0.7,0.8-1.4,1.5-2.1,2.3c-0.4,0.4-0.7,0.8-1.1,1.2
				c-0.6,0.7-1.3,1.3-1.9,1.9c-2.7,2.7-5.6,5.4-8.5,7.8c-0.4,0.4-0.9,0.7-1.3,1.1c-0.4,0.3-0.8,0.6-1.1,0.9
				c-0.5,0.4-0.9,0.7-1.4,1.1l-0.9,0.7c-0.8,0.6-1.5,1.2-2.3,1.8c-0.8,0.6-1.6,1.2-2.4,1.7c-1.3,0.9-2.5,1.8-3.8,2.6
				c-0.5,0.3-1,0.6-1.5,1c-1.2,0.8-2.5,1.6-3.8,2.3c-0.6,0.3-1.1,0.7-1.7,1c-1.3,0.8-2.7,1.6-4.1,2.3c-0.5,0.3-0.9,0.5-1.4,0.8
				c-0.6,0.3-1.2,0.6-1.8,0.9l-21-36.2c-10.4,4.9-21.7,8.1-33.7,9.1l0.1,41.8c-0.1,0-0.2,0-0.3,0c-0.6,0-1.3,0.1-1.9,0.1
				c-0.6,0-1.2,0-1.7,0.1c0,0-0.1,0-0.1,0c-0.2,0-0.3,0-0.5,0c0,0-0.1,0-0.1,0c-0.4,0-0.9,0-1.4,0c-0.9,0-1.7,0-2.6,0v-58.1
				c45.3,0,82.1-36.8,82.1-82.1s-36.8-82.1-82.1-82.1V27.8c0.7,0,1.4,0,2,0c0.3,0,0.7,0,1,0c0.3,0,0.7,0,1,0c0.8,0,1.7,0.1,2.5,0.1
				c0.3,0,0.6,0,0.8,0c0.3,0,0.6,0,0.8,0c1.2,0.1,2.4,0.1,3.5,0.2c0.5,0,0.9,0.1,1.4,0.1c0,0,0,0,0,0c1.3,0.1,2.6,0.3,3.9,0.4
				c0.4,0,0.8,0.1,1.2,0.2c3,0.4,6,0.9,8.9,1.5c0.3,0.1,0.6,0.1,0.9,0.2c0.4,0.1,0.8,0.2,1.1,0.2c0.5,0.1,1.1,0.2,1.6,0.4
				c0.4,0.1,0.8,0.2,1.2,0.3c0.5,0.1,1,0.2,1.4,0.3c0.4,0.1,0.8,0.2,1.3,0.3c3.1,0.8,6.3,1.7,9.3,2.7c0.5,0.2,1,0.3,1.4,0.5
				c0.7,0.2,1.5,0.5,2.2,0.8c0.4,0.1,0.8,0.3,1.2,0.4c0.5,0.2,1.1,0.4,1.6,0.6s1.1,0.4,1.6,0.6c2.1,0.8,4.2,1.7,6.2,2.7
				c0.4,0.2,0.8,0.3,1.1,0.5c0.4,0.2,0.8,0.4,1.1,0.5c0.4,0.2,0.8,0.4,1.1,0.5c0.4,0.2,0.8,0.4,1.1,0.6c1.6,0.8,3.1,1.6,4.7,2.4
				c0.3,0.1,0.5,0.3,0.8,0.4c0.6,0.3,1.2,0.7,1.8,1c0.5,0.3,1,0.6,1.6,0.9c0.6,0.4,1.2,0.7,1.8,1.1c0.1,0.1,0.3,0.2,0.4,0.3
				c0.5,0.3,1,0.6,1.5,1c0.6,0.4,1.1,0.7,1.7,1.1l-20.9,36.3c9.6,6.7,18,15,24.7,24.6l36.3-21c1.1,1.7,2.2,3.5,3.3,5.2
				c0.3,0.5,0.6,1,0.9,1.5c0.3,0.6,0.7,1.1,1,1.7c0.2,0.3,0.3,0.6,0.5,0.9c0.6,1.1,1.2,2.2,1.8,3.4c0.3,0.5,0.5,1,0.8,1.5
				c0.4,0.8,0.8,1.7,1.3,2.6c0.2,0.4,0.4,0.8,0.5,1.1c0.1,0.1,0.1,0.3,0.2,0.4c0.2,0.4,0.3,0.7,0.5,1.1c0.2,0.4,0.4,0.9,0.6,1.3
				c0.2,0.5,0.4,1,0.7,1.5c0.2,0.5,0.4,0.9,0.6,1.4c0.2,0.5,0.4,1.1,0.6,1.6c0.6,1.5,1.2,3.1,1.8,4.6c0.2,0.5,0.4,1.1,0.6,1.6
				c1.3,3.8,2.5,7.7,3.5,11.7c0.1,0.6,0.3,1.2,0.4,1.8c0.2,1,0.5,2.1,0.7,3.1c0.1,0.6,0.2,1.1,0.3,1.7c0.1,0.6,0.2,1.1,0.3,1.7
				c0.1,0.5,0.2,1,0.3,1.5c0.2,1.2,0.4,2.4,0.6,3.6c0.1,0.6,0.2,1.1,0.2,1.7c0.1,0.6,0.2,1.1,0.2,1.7c0.2,1.6,0.4,3.2,0.5,4.8
				c0.1,1.4,0.2,2.8,0.3,4.2c0,0.2,0,0.4,0,0.6c0,0.4,0,0.7,0.1,1.1C530.8,163.5,530.9,165.8,530.9,168z"/>
			<path id="XMLID_39_" class="st4" d="M366.6,295.8c-1.8-0.2-3-1.8-2.8-3.6c0.2-1.8,1.8-3,3.6-2.8c1.8,0.2,3,1.9,2.8,3.6
				C370,294.8,368.4,296,366.6,295.8z"/>
			<path id="XMLID_38_" class="st4" d="M387,295.6c-0.2,1.8-1.9,3-3.7,2.7c-1.8-0.3-3-1.8-2.8-3.6c0.2-1.8,1.8-3,3.6-2.8
				C385.9,292.2,387.2,293.8,387,295.6z"/>
			<path id="XMLID_37_" class="st4" d="M385.6,282.3c-1.8-0.3-3-1.9-2.6-3.7c0.3-1.8,1.9-2.9,3.7-2.6c1.7,0.3,3,2,2.7,3.7
				C389.1,281.4,387.4,282.6,385.6,282.3z"/>
			<g id="derecha_2_" class="st5">
				<path id="XMLID_36_" class="st6" d="M506.9,125.1c-0.3,1.8-2,2.9-3.8,2.6c-1.8-0.3-3-1.9-2.6-3.7c0.3-1.8,2-2.9,3.8-2.6
					C506,121.6,507.2,123.3,506.9,125.1z"/>
				<path id="XMLID_35_" class="st6" d="M517.8,130.2c-0.3,1.8-2,2.9-3.8,2.6c-1.8-0.3-3-2-2.7-3.7c0.3-1.8,2-2.9,3.7-2.6
					C516.9,126.8,518.1,128.5,517.8,130.2z"/>
				<path id="XMLID_34_" class="st6" d="M492.7,123.6c-1.8-0.3-3-1.9-2.7-3.7c0.3-1.8,1.9-3,3.7-2.7c1.8,0.3,3,2,2.7,3.7
					C496.2,122.7,494.5,123.8,492.7,123.6z"/>
				<path id="XMLID_33_" class="st6" d="M498.9,238.1c1.8,0.3,3,2,2.7,3.7c-0.3,1.7-2,2.9-3.7,2.6c-1.8-0.3-3-2-2.7-3.7
					C495.5,238.9,497.2,237.8,498.9,238.1z"/>
				<path id="XMLID_32_" class="st6" d="M474.5,247c-1.8-0.4-2.8-2.1-2.4-3.9c0.4-1.6,2.1-2.8,3.7-2.4c1.7,0.3,2.9,2.1,2.6,3.8
					C478.1,246.3,476.4,247.4,474.5,247z"/>
				<path id="XMLID_31_" class="st6" d="M410.6,54.1c-1.8-0.3-3-1.8-2.7-3.6c0.3-1.8,1.9-3,3.7-2.7c1.8,0.3,3,1.9,2.7,3.7
					C414.1,53.2,412.4,54.4,410.6,54.1z"/>
			</g>
			<path id="XMLID_30_" class="st4" d="M372.7,277.1c-0.3,1.7-1.9,3-3.7,2.7c-1.8-0.3-3-1.8-2.7-3.7c0.3-1.8,1.9-3,3.7-2.7
				C371.7,273.7,372.9,275.3,372.7,277.1z"/>
			<path id="XMLID_29_" class="st4" d="M385.5,284c1.8,0.3,3,2,2.7,3.7c-0.3,1.7-2,2.9-3.7,2.6c-1.8-0.3-2.9-1.9-2.6-3.7
				C382.1,284.8,383.7,283.7,385.5,284z"/>
			<path id="XMLID_28_" class="st4" d="M367.7,287.8c-1.8-0.3-2.9-1.9-2.6-3.7c0.3-1.8,1.9-2.9,3.7-2.6c1.8,0.3,3,2,2.7,3.7
				C371.1,286.9,369.5,288.1,367.7,287.8z"/>
			<path id="XMLID_27_" class="st7" d="M442.6,190.8c-8.2,13.3-19.5,16.2-27.6,16.2c-4.2,0-8.4-0.7-12.4-2.1c0.9,3.6,2,5.6,3,6.3
				l1.5,1v9.8h-32.7v-9.8l1.5-1c1-0.7,2.1-2.6,3-6.3c-4,1.4-8.2,2.2-12.4,2.1c-8.1-0.1-19.5-2.9-27.6-16.2
				c-6.6-10.7-6.7-23.5-0.5-34.9c4.8-8.8,12.3-15.9,19.6-22.7c1.3-1.2,2.5-2.3,3.7-3.5c4.5-4.3,9-8.5,13.4-12.5
				c4.4-4,8.9-8.1,13.3-12.4l2.4-2.3l2.4,2.3c4.4,4.3,8.9,8.4,13.3,12.4c4.4,4,8.9,8.2,13.4,12.5c1.2,1.1,2.4,2.3,3.7,3.5
				c7.2,6.8,14.7,13.9,19.6,22.7C449.3,167.4,449.1,180.1,442.6,190.8z"/>
			<path id="XMLID_26_" class="st8" d="M442.6,190.8c-8.2,13.3-19.5,16.2-27.6,16.2c-4.2,0-8.4-0.7-12.4-2.1c0.9,3.6,2,5.6,3,6.3
				l1.5,1v9.8h-16.3V102.5l2.4,2.3c4.4,4.3,8.9,8.4,13.3,12.4c4.4,4,8.9,8.2,13.4,12.5c1.2,1.1,2.4,2.3,3.7,3.5
				c7.2,6.8,14.7,13.9,19.6,22.7C449.3,167.4,449.1,180.1,442.6,190.8z"/>
			<path id="XMLID_25_" class="st7" d="M429.9,183.9c-6.2,10.1-14.8,12.2-20.9,12.3c-3.2,0-6.4-0.5-9.4-1.6c0.7,2.8,1.5,4.2,2.2,4.8
				l1.1,0.8v7.4h-24.7v-7.4l1.1-0.8c0.7-0.5,1.6-2,2.2-4.8c-3,1.1-6.2,1.6-9.4,1.6c-6.1,0-14.7-2.2-20.9-12.3
				c-5-8.1-5.1-17.7-0.4-26.4c3.7-6.7,9.3-12,14.8-17.2c1-0.9,1.9-1.8,2.8-2.6c3.4-3.3,6.8-6.4,10.2-9.4c3.3-3,6.7-6.1,10.1-9.4
				l1.8-1.8l1.8,1.8c3.3,3.2,6.8,6.3,10.1,9.4c3.3,3,6.8,6.2,10.2,9.4c0.9,0.9,1.8,1.7,2.8,2.6c5.5,5.2,11.1,10.5,14.8,17.2
				C435,166.1,434.9,175.8,429.9,183.9z"/>
			<path id="XMLID_24_" class="st8" d="M429.9,183.9c-6.2,10.1-14.8,12.2-20.9,12.3c-3.2,0-6.4-0.5-9.4-1.6c0.7,2.8,1.5,4.2,2.2,4.8
				l1.1,0.8v7.4h-12.4v-90.4l1.8,1.8c3.3,3.2,6.8,6.3,10.1,9.4c3.3,3,6.8,6.2,10.2,9.4c0.9,0.9,1.8,1.7,2.8,2.6
				c5.5,5.2,11.1,10.5,14.8,17.2C435,166.1,434.9,175.8,429.9,183.9z"/>
			<path id="XMLID_23_" class="st4" d="M294.9,213.6c1.7,0.3,3,2,2.7,3.7c-0.3,1.8-2,3-3.7,2.7c-1.8-0.3-3-1.9-2.7-3.7
				C291.5,214.5,293.1,213.3,294.9,213.6z"/>
			<path id="XMLID_22_" class="st4" d="M282.1,223.4c-0.3,1.8-1.9,3-3.7,2.7c-1.8-0.3-3-1.8-2.7-3.7c0.3-1.8,1.9-3,3.7-2.7
				C281.1,220.1,282.3,221.7,282.1,223.4z"/>
			<path id="XMLID_21_" class="st4" d="M291.8,201.8c-0.3,1.7-2,2.9-3.8,2.6c-1.8-0.3-2.9-2-2.6-3.7c0.3-1.8,1.9-2.9,3.7-2.6
				C290.9,198.4,292.1,200.1,291.8,201.8z"/>
			<g id="derecha_4_" class="st5">
				<path id="XMLID_80_" class="st6" d="M506.9,125.1c-0.3,1.8-2,2.9-3.8,2.6c-1.8-0.3-3-1.9-2.6-3.7c0.3-1.8,2-2.9,3.8-2.6
					C506,121.6,507.2,123.3,506.9,125.1z"/>
				<path id="XMLID_79_" class="st6" d="M517.8,130.2c-0.3,1.8-2,2.9-3.8,2.6c-1.8-0.3-3-2-2.7-3.7c0.3-1.8,2-2.9,3.7-2.6
					C516.9,126.8,518.1,128.5,517.8,130.2z"/>
				<path id="XMLID_78_" class="st6" d="M492.7,123.6c-1.8-0.3-3-1.9-2.7-3.7c0.3-1.8,1.9-3,3.7-2.7c1.8,0.3,3,2,2.7,3.7
					C496.2,122.7,494.5,123.8,492.7,123.6z"/>
				<path id="XMLID_77_" class="st6" d="M498.9,238.1c1.8,0.3,3,2,2.7,3.7c-0.3,1.7-2,2.9-3.7,2.6c-1.8-0.3-3-2-2.7-3.7
					C495.5,238.9,497.2,237.8,498.9,238.1z"/>
				<path id="XMLID_68_" class="st6" d="M474.5,247c-1.8-0.4-2.8-2.1-2.4-3.9c0.4-1.6,2.1-2.8,3.7-2.4c1.7,0.3,2.9,2.1,2.6,3.8
					C478.1,246.3,476.4,247.4,474.5,247z"/>
				<path id="XMLID_66_" class="st6" d="M410.6,54.1c-1.8-0.3-3-1.8-2.7-3.6c0.3-1.8,1.9-3,3.7-2.7c1.8,0.3,3,1.9,2.7,3.7
					C414.1,53.2,412.4,54.4,410.6,54.1z"/>
			</g>
			<path id="XMLID_20_" class="st9" d="M498.9,238.1c1.8,0.3,3,2,2.7,3.7c-0.3,1.7-2,2.9-3.7,2.6c-1.8-0.3-3-2-2.7-3.7
				C495.5,238.9,497.2,237.8,498.9,238.1z"/>
			<path id="XMLID_19_" class="st9" d="M474.5,247c-1.8-0.4-2.8-2.1-2.4-3.9c0.4-1.6,2.1-2.8,3.7-2.4c1.7,0.3,2.9,2.1,2.6,3.8
				C478.1,246.3,476.4,247.4,474.5,247z"/>
			<path id="XMLID_18_" class="st4" d="M273.6,204.3c1.7,0.3,2.9,2,2.6,3.7c-0.3,1.7-2,2.9-3.8,2.6c-1.8-0.3-2.9-1.9-2.6-3.7
				C270.1,205.1,271.8,204,273.6,204.3z"/>
			<g id="derecha_5_" class="st5">
				<path id="XMLID_89_" class="st6" d="M505.6,122.2c-0.3,1.8-1.9,2.9-3.7,2.7c-1.8-0.3-3-1.9-2.7-3.7c0.3-1.8,1.9-3,3.7-2.7
					C504.6,118.8,505.8,120.4,505.6,122.2z"/>
				<path id="XMLID_88_" class="st6" d="M516.7,127.1c-0.3,1.8-1.9,3-3.7,2.7c-1.8-0.3-3-1.9-2.7-3.6c0.3-1.8,1.9-3,3.7-2.7
					C515.7,123.7,516.9,125.3,516.7,127.1z"/>
				<path id="XMLID_87_" class="st6" d="M491.4,121c-1.8-0.2-3-1.8-2.8-3.6c0.3-1.8,1.8-3,3.6-2.8c1.8,0.2,3,1.9,2.8,3.6
					C494.8,120.1,493.2,121.3,491.4,121z"/>
				<path id="XMLID_86_" class="st6" d="M500.6,235.4c1.8,0.3,3,1.9,2.8,3.6c-0.2,1.7-1.9,3-3.7,2.7c-1.8-0.2-3.1-1.9-2.8-3.6
					C497.2,236.3,498.8,235.1,500.6,235.4z"/>
				<path id="XMLID_85_" class="st6" d="M476.4,244.9c-1.8-0.3-2.9-2-2.5-3.8c0.4-1.6,2-2.8,3.7-2.5c1.7,0.3,3,2,2.7,3.7
					C479.9,244.1,478.2,245.3,476.4,244.9z"/>
				<path id="XMLID_84_" class="st6" d="M407.6,53.7c-1.8-0.2-3-1.8-2.8-3.6c0.2-1.8,1.8-3,3.6-2.8c1.8,0.2,3,1.8,2.8,3.6
					C411,52.7,409.4,53.9,407.6,53.7z"/>
			</g>
			<path id="XMLID_17_" class="st9" d="M505.6,122.2c-0.3,1.8-1.9,2.9-3.7,2.7c-1.8-0.3-3-1.9-2.7-3.7c0.3-1.8,1.9-3,3.7-2.7
				C504.6,118.8,505.8,120.4,505.6,122.2z"/>
			<path id="XMLID_14_" class="st9" d="M516.7,127.1c-0.3,1.8-1.9,3-3.7,2.7c-1.8-0.3-3-1.9-2.7-3.6c0.3-1.8,1.9-3,3.7-2.7
				C515.7,123.7,516.9,125.3,516.7,127.1z"/>
			<path id="XMLID_12_" class="st9" d="M491.4,121c-1.8-0.2-3-1.8-2.8-3.6c0.3-1.8,1.8-3,3.6-2.8c1.8,0.2,3,1.9,2.8,3.6
				C494.8,120.1,493.2,121.3,491.4,121z"/>
			<path id="XMLID_11_" class="st4" d="M286.2,103.4c-1.8-0.2-3.1-1.8-2.9-3.6c0.2-1.7,1.9-3.1,3.6-2.9c1.7,0.2,3.1,1.9,2.9,3.6
				C289.6,102.4,288,103.6,286.2,103.4z"/>
			<path id="XMLID_10_" class="st4" d="M299.5,113.4c-1.8-0.2-3.1-1.8-2.9-3.5c0.2-1.8,1.8-3.1,3.5-2.9c1.8,0.2,3.1,1.7,2.9,3.5
				C302.8,112.3,301.2,113.6,299.5,113.4z"/>
			<path id="XMLID_9_" class="st4" d="M301.4,98.7c-0.2,1.8-1.8,3.1-3.6,2.9c-1.8-0.2-3.1-1.8-2.9-3.6c0.2-1.7,1.9-3.1,3.6-2.9
				C300.2,95.3,301.6,96.9,301.4,98.7z"/>
			<path id="XMLID_8_" class="st4" d="M296.1,89.9c-1.8-0.2-3.1-1.7-2.9-3.5c0.1-1.7,1.8-3.1,3.5-2.9c1.8,0.2,3.1,1.7,2.9,3.5
				C299.5,88.8,297.9,90,296.1,89.9z"/>
			<g id="derecha_6_" class="st5">
				<path id="XMLID_98_" class="st6" d="M504.9,120.6c-0.2,1.8-1.9,3-3.7,2.7c-1.8-0.3-3-1.8-2.8-3.6c0.3-1.8,1.9-3,3.7-2.7
					C503.8,117.2,505.1,118.9,504.9,120.6z"/>
				<path id="XMLID_97_" class="st6" d="M516,125.4c-0.2,1.8-1.9,3-3.6,2.8c-1.8-0.2-3.1-1.9-2.8-3.6c0.3-1.8,1.8-3,3.6-2.8
					C515,122,516.3,123.6,516,125.4z"/>
				<path id="XMLID_96_" class="st6" d="M490.7,119.7c-1.8-0.2-3.1-1.8-2.8-3.6c0.2-1.8,1.8-3,3.6-2.8c1.8,0.2,3,1.8,2.9,3.6
					C494.1,118.6,492.5,119.9,490.7,119.7z"/>
				<path id="XMLID_95_" class="st6" d="M501.4,233.9c1.8,0.2,3,1.8,2.8,3.6c-0.2,1.7-1.8,3-3.6,2.8c-1.8-0.2-3.1-1.9-2.8-3.6
					C498,234.8,499.6,233.6,501.4,233.9z"/>
				<path id="XMLID_94_" class="st6" d="M477.4,243.7c-1.8-0.3-2.9-2-2.5-3.8c0.3-1.6,2-2.8,3.6-2.6c1.7,0.3,3,2,2.7,3.7
					C480.9,242.9,479.2,244.1,477.4,243.7z"/>
				<path id="XMLID_93_" class="st6" d="M405.9,53.5c-1.8-0.2-3.1-1.7-2.9-3.5c0.2-1.8,1.7-3.1,3.6-2.9c1.8,0.2,3.1,1.8,2.9,3.6
					C409.3,52.5,407.7,53.7,405.9,53.5z"/>
			</g>
			<path id="XMLID_7_" class="st9" d="M405.6,53.4c-1.8-0.2-3.1-1.7-2.9-3.5c0.2-1.8,1.7-3.1,3.6-2.9c1.8,0.2,3.1,1.8,2.9,3.6
				C409,52.3,407.4,53.6,405.6,53.4z"/>
			<path id="XMLID_6_" class="st4" d="M309.9,93.5c1.8,0.2,3.1,1.7,2.9,3.5c-0.2,1.7-1.8,3-3.6,2.9c-1.8-0.2-3.1-1.8-2.9-3.5
				C306.6,94.6,308.2,93.3,309.9,93.5z"/>
		</g>
		<g id="XMLID_52_">
			<path id="XMLID_59_" class="st10" d="M30.4,195.7v-54.5c0-1.1,0.4-2.1,1.2-2.9c0.8-0.8,1.8-1.2,2.9-1.2h50.5
				c1.1,0,2.1,0.4,2.9,1.2c0.8,0.8,1.2,1.8,1.2,2.9v4.1c0,1.1-0.4,2.1-1.2,2.9c-0.8,0.8-1.8,1.2-2.9,1.2H47v12.7h32.8
				c1.1,0,2.1,0.4,2.9,1.2c0.8,0.8,1.2,1.8,1.2,2.9v4.1c0,1.1-0.4,2.1-1.2,2.9c-0.8,0.8-1.8,1.2-2.9,1.2H47v12.9H85
				c1.1,0,2.1,0.4,2.8,1.2c0.8,0.8,1.2,1.8,1.2,2.9v4.2c0,1.1-0.4,2.1-1.2,2.9c-0.8,0.8-1.8,1.2-2.9,1.2H34.6
				c-1.1,0-2.1-0.4-2.9-1.2C30.9,197.9,30.4,196.9,30.4,195.7z"/>
			<path id="XMLID_73_" class="st10" d="M97.3,195.8v-54.5c0-1.1,0.4-2.1,1.2-2.9c0.8-0.8,1.8-1.2,2.9-1.2h12.9c1,0,2.1,0.4,3.2,1.2
				c1.1,0.8,2.1,1.8,2.8,2.9l26.4,40.7v-40.8c0-1.1,0.4-2.1,1.2-2.9c0.8-0.8,1.8-1.2,2.9-1.2h7.5c1.1,0,2.1,0.4,2.9,1.2
				c0.8,0.8,1.2,1.8,1.2,3v54.5c0,1.1-0.4,2.1-1.2,2.9c-0.8,0.8-1.8,1.2-2.9,1.2h-14.5c-1.1,0-2.3-0.4-3.5-1.2
				c-1.2-0.8-2.1-1.8-2.8-2.9l-24.2-37.6v37.6c0,1.1-0.4,2.1-1.2,2.9c-0.8,0.8-1.8,1.2-2.9,1.2h-7.7c-1.1,0-2.1-0.4-2.9-1.2
				C97.7,197.9,97.3,196.9,97.3,195.8z"/>
			<path id="XMLID_75_" class="st10" d="M175,195.8v-54.5c0-1.2,0.4-2.2,1.2-3c0.8-0.8,1.8-1.2,2.9-1.2h24.5
				c12.7,0,21.9,2.5,27.7,7.6c5.8,5.1,8.6,13,8.6,23.8c0,10.8-2.9,18.7-8.6,23.8c-5.8,5.1-15,7.6-27.7,7.6h-24.5
				c-1.1,0-2.1-0.4-2.9-1.2C175.4,197.9,175,197,175,195.8z M191.5,187.5h11.6c7.9,0,13.2-1.4,16-4.3c2.8-2.9,4.2-7.8,4.2-14.7
				c0-6.9-1.4-11.8-4.2-14.7c-2.8-2.9-8.2-4.3-16-4.3h-11.6V187.5z"/>
			<path id="XMLID_83_" class="st10" d="M544.1,195.7v-54.5c0-1.1,0.4-2.1,1.2-2.9c0.8-0.8,1.8-1.2,2.9-1.2h50.5
				c1.1,0,2.1,0.4,2.9,1.2c0.8,0.8,1.2,1.8,1.2,2.9v4.1c0,1.1-0.4,2.1-1.2,2.9c-0.8,0.8-1.8,1.2-2.9,1.2h-38.1v12.7h32.8
				c1.1,0,2.1,0.4,2.9,1.2c0.8,0.8,1.2,1.8,1.2,2.9v4.1c0,1.1-0.4,2.1-1.2,2.9c-0.8,0.8-1.8,1.2-2.9,1.2h-32.8v12.9h38.1
				c1.1,0,2.1,0.4,2.8,1.2c0.8,0.8,1.2,1.8,1.2,2.9v4.2c0,1.1-0.4,2.1-1.2,2.9c-0.8,0.8-1.8,1.2-2.9,1.2h-50.3
				c-1.1,0-2.1-0.4-2.9-1.2C544.5,197.9,544.1,196.9,544.1,195.7z"/>
			<path id="XMLID_91_" class="st10" d="M610.9,195.8v-54.5c0-1.1,0.4-2.1,1.2-2.9c0.8-0.8,1.8-1.2,2.9-1.2h12.9
				c1,0,2.1,0.4,3.2,1.2c1.1,0.8,2.1,1.8,2.8,2.9l26.4,40.7v-40.8c0-1.1,0.4-2.1,1.2-2.9c0.8-0.8,1.8-1.2,2.9-1.2h7.5
				c1.1,0,2.1,0.4,2.9,1.2c0.8,0.8,1.2,1.8,1.2,3v54.5c0,1.1-0.4,2.1-1.2,2.9c-0.8,0.8-1.8,1.2-2.9,1.2h-14.5
				c-1.1,0-2.3-0.4-3.5-1.2c-1.2-0.8-2.1-1.8-2.8-2.9l-24.2-37.6v37.6c0,1.1-0.4,2.1-1.2,2.9c-0.8,0.8-1.8,1.2-2.9,1.2h-7.7
				c-1.1,0-2.1-0.4-2.9-1.2C611.3,197.9,610.9,196.9,610.9,195.8z"/>
			<path id="XMLID_99_" class="st10" d="M688.7,195.8v-54.5c0-1.2,0.4-2.2,1.2-3c0.8-0.8,1.8-1.2,2.9-1.2h24.5
				c12.7,0,21.9,2.5,27.7,7.6c5.8,5.1,8.6,13,8.6,23.8c0,10.8-2.9,18.7-8.6,23.8c-5.8,5.1-15,7.6-27.7,7.6h-24.5
				c-1.1,0-2.1-0.4-2.9-1.2C689.1,197.9,688.7,197,688.7,195.8z M705.2,187.5h11.6c7.9,0,13.2-1.4,16-4.3c2.8-2.9,4.2-7.8,4.2-14.7
				c0-6.9-1.4-11.8-4.2-14.7c-2.8-2.9-8.2-4.3-16-4.3h-11.6V187.5z"/>
		</g>
		<g id="XMLID_102_">
			<path id="XMLID_103_" class="st10" d="M350.1,204v-9c0-5.2,1.1-9.7,3.2-13.5c2.1-3.8,4.9-6.8,8.3-9c3.4-2.2,7.1-4,11.2-5.6
				c4.1-1.6,8.2-2.8,12.3-3.8c4.1-1,7.8-1.9,11.2-2.9c7.6-2.3,11.4-5.5,11.4-9.8c0-4.6-1.2-7.7-3.6-9.4c-2.4-1.7-6.4-2.5-12-2.5
				h-4.4c-7.9,0-13.1,2.5-15.6,7.6c-1.8,3.8-4.6,5.8-8.3,5.8h-7.3c-2,0-3.6-0.7-4.7-2.1c-1.1-1.4-1.7-3-1.7-4.7
				c0-4.7,1.8-8.9,5.4-12.6c3.6-3.7,8-6.6,13.4-8.4c5.3-1.9,10.9-2.8,16.6-2.8h8.3c18,0,29.3,5,34.1,15c1.9,3.9,2.8,8.5,2.8,13.7
				c0,5.2-1.1,9.6-3.2,13.3c-2.1,3.6-4.9,6.5-8.2,8.7c-3.4,2.1-7.1,4-11.2,5.6c-4.1,1.6-8.2,2.8-12.3,3.8c-4.1,1-7.8,2-11.2,2.9
				c-7.7,2.1-11.5,4.9-11.5,8.3h51c1.7,0,3.1,0.6,4.2,1.7c1.1,1.1,1.7,2.5,1.7,4.1v5.8c0,1.6-0.6,3-1.7,4.1
				c-1.2,1.1-2.5,1.7-4.1,1.7h-68.2c-1.6,0-3-0.6-4.2-1.7C350.7,206.9,350.1,205.6,350.1,204z"/>
		</g>
	</g>
</g>
</svg>
